<svg xmlns="http://www.w3.org/2000/svg" xmlns:xlink="http://www.w3.org/1999/xlink" width="25" height="15" viewBox="0 0 25 15"><defs><style>.a{fill:#fff;stroke:#707070;}.b{clip-path:url(#a);}.c{fill:#f0f0f0;}.d{fill:#d80027;}.e{fill:#0052b4;}</style><clipPath id="a"><rect class="a" width="25" height="15" transform="translate(101.117 22)"/></clipPath></defs><g class="b" transform="translate(-101.117 -22)"><g transform="translate(102.367 18.25)"><rect class="c" width="22.5" height="15" transform="translate(0 3.75)"/><path class="d" d="M12.656,3.75H9.844V9.843H0v2.812H9.844v6.094h2.812V12.656H22.5V9.843H12.656Z"/><path class="e" d="M17.3,13.858,22.5,16.744V13.858Z"/><path class="e" d="M13.7,13.858l8.8,4.891V17.366l-6.315-3.508Z"/><path class="e" d="M20.154,18.749,13.7,15.161v3.589Z"/><path class="c" d="M13.7,13.858l8.8,4.891V17.366l-6.315-3.508Z"/><path class="d" d="M13.7,13.858l8.8,4.891V17.366l-6.315-3.508Z"/><path class="e" d="M3.97,13.858,0,16.064V13.858Z"/><path class="e" d="M8.8,14.48v4.269H1.12Z"/><path class="d" d="M6.315,13.858,0,17.366v1.383H0l8.8-4.891Z"/><path class="e" d="M5.195,8.641,0,5.755V8.641Z"/><path class="e" d="M8.8,8.641,0,3.75V5.133L6.315,8.641Z"/><path class="e" d="M2.345,3.75,8.8,7.338V3.75Z"/><path class="c" d="M8.8,8.641,0,3.75V5.133L6.315,8.641Z"/><path class="d" d="M8.8,8.641,0,3.75V5.133L6.315,8.641Z"/><path class="e" d="M18.53,8.641,22.5,6.435V8.641Z"/><path class="e" d="M13.7,8.019V3.75h7.684Z"/><path class="d" d="M16.185,8.641,22.5,5.133V3.75h0L13.7,8.641Z"/></g></g></svg>