<svg xmlns="http://www.w3.org/2000/svg" xmlns:xlink="http://www.w3.org/1999/xlink" width="656" height="440" viewBox="0 0 656 440">
	<defs>
		<style>
			.a-failed,.f-failed{fill:#fff;}.a-failed{stroke:#707070;}.b-failed{clip-path:url(#a-failed);}.c-failed{fill:#382b73;}.d-failed{fill:#473080;}.e-failed{fill:#d1d3d4;}.g-failed{fill:#e6e7e8;}.h-failed{fill:#d0d2d3;}.i-failed{fill:#bbbdbf;}.j-failed{fill:#e43d91;}.k-failed{fill:#ef5a9d;}
		</style>
		<clipPath id="a-failed">
			<rect class="a-failed" width="656" height="440" transform="translate(195 471)" />
		</clipPath>
	</defs>
	<g class="b-failed" transform="translate(-195 -471)">
		<g transform="translate(303 471)">
			<path class="c-failed" d="M440,220c0,121.5-98.5,220-220,220S0,341.5,0,220,98.5,0,220,0,440,98.5,440,220Zm0,0" />
			<path class="d-failed" d="M410.331,220c0,105.119-85.214,190.332-190.332,190.332S29.667,325.119,29.667,220,114.881,29.668,220,29.668,410.331,114.881,410.331,220Zm0,0" />
			<path class="c-failed" d="M361.875,264.811a59,59,0,0,0-44.221-57.119V136.045A14.294,14.294,0,0,0,306.3,122.061a14.287,14.287,0,0,0-13.981-11.354H241.488L230.062,99.281H129.255a14.28,14.28,0,0,0-14.28,14.283V322.383a14.289,14.289,0,0,0,11.663,14.042,14.3,14.3,0,0,0,11.116,11.365,14.287,14.287,0,0,0,13.981,11.357H303.371a14.283,14.283,0,0,0,14.28-14.283V321.929a59.005,59.005,0,0,0,44.225-57.119Zm0,0" />
			<path class="e-failed" d="M303.371,346.246H151.739a14.283,14.283,0,0,1-14.283-14.28V128.859a14.283,14.283,0,0,1,14.283-14.283H303.371a14.283,14.283,0,0,1,14.283,14.283v203.1a14.283,14.283,0,0,1-14.283,14.283Zm0,0" />
			<path class="f-failed" d="M303.371,340.531H151.739a14.28,14.28,0,0,1-14.283-14.28v-203.1a14.283,14.283,0,0,1,14.283-14.283H303.371a14.283,14.283,0,0,1,14.283,14.283v203.1A14.28,14.28,0,0,1,303.371,340.531Zm0,0" />
			<path class="e-failed" d="M292.316,335.191H140.684a14.283,14.283,0,0,1-14.283-14.28V117.8a14.283,14.283,0,0,1,14.283-14.283H292.316A14.283,14.283,0,0,1,306.6,117.8v203.1a14.283,14.283,0,0,1-14.283,14.283Zm0,0" />
			<path class="g-failed" d="M292.316,329.476H140.684A14.28,14.28,0,0,1,126.4,315.2v-203.1a14.283,14.283,0,0,1,14.283-14.283H292.316A14.283,14.283,0,0,1,306.6,112.093V315.2A14.28,14.28,0,0,1,292.316,329.476Zm0,0" />
			<path class="e-failed" d="M235.773,92.094H129.255a14.28,14.28,0,0,0-14.28,14.283v203.1a14.28,14.28,0,0,0,14.28,14.283H280.89a14.28,14.28,0,0,0,14.28-14.283V151.5Zm0,0" />
			<path class="f-failed" d="M230.062,86.383H129.255a14.277,14.277,0,0,0-14.28,14.28v203.1a14.28,14.28,0,0,0,14.28,14.283H280.89a14.28,14.28,0,0,0,14.28-14.283V151.495Zm0,0" />
			<path class="h-failed" d="M266.772,182.221h-123.4a5.713,5.713,0,0,1,0-11.426h123.4a5.713,5.713,0,1,1,0,11.426Zm0,0" />
			<path class="h-failed" d="M266.772,216.88h-123.4a5.713,5.713,0,0,1,0-11.426h123.4a5.713,5.713,0,1,1,0,11.426Zm0,0" />
			<path class="h-failed" d="M266.772,251.539h-123.4a5.715,5.715,0,0,1,0-11.429h123.4a5.715,5.715,0,1,1,0,11.429Zm0,0" />
			<path class="h-failed" d="M266.772,286.2h-123.4a5.713,5.713,0,0,1,0-11.426h123.4a5.713,5.713,0,1,1,0,11.426Zm0,0" />
			<path class="i-failed" d="M295.173,151.494H244.345a14.283,14.283,0,0,1-14.283-14.283V86.383Zm0,0" />
			<path class="j-failed" d="M316.452,194.543A58.976,58.976,0,1,0,360.3,265.495a58.975,58.975,0,0,0-43.847-70.952Zm0,0" />
			<path class="k-failed" d="M313.631,206.5a46.69,46.69,0,1,0,34.71,56.169A46.692,46.692,0,0,0,313.631,206.5Zm0,0" />
			<path class="f-failed" d="M280.534,274.279a8.6,8.6,0,0,1,0-12.16l32.572-32.576a8.6,8.6,0,0,1,12.16,12.164l-32.572,32.572A8.6,8.6,0,0,1,280.534,274.279Zm0,0" />
			<path class="f-failed" d="M325.266,274.279a8.6,8.6,0,0,1-12.16,0l-32.572-32.572a8.6,8.6,0,1,1,12.16-12.164l32.572,32.576A8.6,8.6,0,0,1,325.266,274.279Zm0,0" />
		</g>
	</g>
</svg>
