<svg xmlns="http://www.w3.org/2000/svg" xmlns:xlink="http://www.w3.org/1999/xlink" viewBox="0 0 156 156">
<defs
><style>.b-logo{clip-path:url(#a-logo);}</style
><clipPath id="a-logo"><circle style="fill:#D3B568;stroke:#707070;" cx="78" cy="78" r="78"/></clipPath></defs><g class="b-logo"><g transform="translate(0 10.512)"><path fill="#D3B568" d="M35.472,46.445l49.636,80.836L191.472,0,85.818,83.673Z" transform="translate(-35.472)"/><path fill="#2176ff" d="M127.991,5.85a67.516,67.516,0,0,1,34.533,9.328L139.8,32.459a39.4,39.4,0,0,0-23.673-.1c-16.079,5.091-26.786,20.191-29.5,38.564L65.275,54.862h0C69.991,27.1,96.27,5.85,127.991,5.85Z" transform="translate(-35.472)"/><path fill="#2176ff" d="M175.145,57.259l-.355,59.918-.1.018v1.241a70.713,70.713,0,0,1-45.279,16.54,69.672,69.672,0,0,1-29.073-6.329l17.88-20.865a69.284,69.284,0,0,0,9.044.589,54.092,54.092,0,0,0,21.879-4.847l.294-22.336-9.75.177,19.5-23.755Z" transform="translate(-35.472)"/></g></g></svg>