<svg xmlns="http://www.w3.org/2000/svg" xmlns:xlink="http://www.w3.org/1999/xlink" width="656" height="277" viewBox="0 0 656 277">
	<defs>
		<style>
			.a-success{fill:#fff;stroke:#707070;}.b-success{clip-path:url(#a-success);}.c-success{fill:#2681ff;}.d-success{fill:#6ba7ff;}.e-success{fill:#8bb9ff;}.f-success{fill:#ffd228;}.g-success{fill:#f7aa00;}.h-success{fill:#ffeb3c;}
		</style>
		<clipPath id="a-success">
			<rect class="a-success" width="656" height="277" transform="translate(195 436)" />
		</clipPath>
	</defs>
	<g class="b-success" transform="translate(-195 -436)">
		<g transform="translate(384.5 436)">
			<path class="c-success" d="M268.885,277H220.193a8.115,8.115,0,0,1-8.115-8.115v-16.23a8.115,8.115,0,0,1,.283-2.126l10.279-37.871a8.115,8.115,0,0,1,7.832-5.989h38.412a8.115,8.115,0,0,1,7.535,11.129L266.8,241.834l9.615,24.037A8.115,8.115,0,0,1,268.885,277Z" />
			<path class="d-success" d="M56.807,277H8.115A8.115,8.115,0,0,1,.581,265.871L10.2,241.834.581,217.8a8.115,8.115,0,0,1,7.535-11.129H46.527a8.115,8.115,0,0,1,7.832,5.989l10.279,37.871a8.112,8.112,0,0,1,.283,2.126v16.23A8.115,8.115,0,0,1,56.807,277Z" />
			<path class="e-success" d="M230.473,260.77H46.527a8.115,8.115,0,0,1-8.115-8.115v-54.1a8.115,8.115,0,0,1,8.115-8.115H230.473a8.115,8.115,0,0,1,8.115,8.115v54.1A8.115,8.115,0,0,1,230.473,260.77Z" />
			<path class="d-success" d="M230.473,190.438H138.5V260.77h91.973a8.115,8.115,0,0,0,8.115-8.115v-54.1A8.115,8.115,0,0,0,230.473,190.438Z" />
			<path class="f-success" d="M138.5,227.227a8.107,8.107,0,0,1-3.253-.681A152.583,152.583,0,0,1,43.822,86.756V40.576a8.115,8.115,0,0,1,8.115-8.115A122.489,122.489,0,0,0,124.975,8.115l8.656-6.492a8.115,8.115,0,0,1,9.738,0l8.656,6.492a122.489,122.489,0,0,0,73.037,24.346,8.115,8.115,0,0,1,8.115,8.115V86.756a152.583,152.583,0,0,1-91.425,139.79A8.107,8.107,0,0,1,138.5,227.227Z" />
			<path class="g-success" d="M141.753,226.546a152.582,152.582,0,0,0,91.425-139.79V40.576a8.115,8.115,0,0,0-8.115-8.115A122.489,122.489,0,0,1,152.025,8.115l-8.656-6.492A8.1,8.1,0,0,0,138.5,0V227.227A8.107,8.107,0,0,0,141.753,226.546Z" />
			<path class="h-success" d="M60.053,48.447V86.756A136.356,136.356,0,0,0,138.5,210.2,136.356,136.356,0,0,0,216.947,86.756V48.447A138.927,138.927,0,0,1,142.287,21.1l-3.787-2.84-3.787,2.84A138.927,138.927,0,0,1,60.053,48.447Z" />
			<path class="f-success" d="M216.947,86.756V48.447A138.927,138.927,0,0,1,142.287,21.1l-3.787-2.84V210.2A136.356,136.356,0,0,0,216.947,86.756Z" />
			<path class="f-success" d="M168.592,165.332a8.106,8.106,0,0,1-3.776-.932L138.5,150.564,112.183,164.4a8.116,8.116,0,0,1-11.775-8.556l5.026-29.3L84.144,105.787a8.115,8.115,0,0,1,4.5-13.842l29.423-4.276,13.158-26.661a8.115,8.115,0,0,1,14.554,0L158.935,87.67l29.423,4.276a8.115,8.115,0,0,1,4.5,13.842L171.565,126.54l5.026,29.3a8.116,8.116,0,0,1-8,9.488Z" />
			<path class="g-success" d="M164.817,164.4a8.115,8.115,0,0,0,11.775-8.555l-5.026-29.3,21.291-20.753a8.115,8.115,0,0,0-4.5-13.842l-29.423-4.276L145.777,61.009a8.115,8.115,0,0,0-7.277-4.523v94.079Z" />
		</g>
	</g>
</svg>
